+ filenameToUse=/home/horvathandras/vatic/vatic/public/videouploads/DJI_0012_5m_to_30m_szarvasnyomok.avi
+ filenameNoDot=DJI_0012_5m_to_30m_szarvasnyomok_Kistape_2018.03.13._napos_kalaszos_T1
+ FullUploadPath=/home/horvathandras/vatic/vatic/public/videouploads/DJI_0012_5m_to_30m_szarvasnyomok.avi
+ VideoDataDir=/home/horvathandras/vatic/vatic/videos
+ AvailableObjectTypes='PozitívROI NegatívROI Túrás ~Friss ~Régebbi Rágás ~Friss ~Régebbi Törés ~Friss ~Régebbi Taposás ~Friss ~Régebbi EgészségesNövény Egyéb1 Egyéb2 Egyéb3 Egyéb4 Egyéb5'
++ dirname /home/horvathandras/vatic/vatic/vatic_publisher.sh
+ cd /home/horvathandras/vatic/vatic
+ touch /home/horvathandras/vatic/vatic/public/videouploads/DJI_0012_5m_to_30m_szarvasnyomok.avi
+ chmod 744 /home/horvathandras/vatic/vatic/public/videouploads/DJI_0012_5m_to_30m_szarvasnyomok.avi
+ mkdir /home/horvathandras/vatic/vatic/videos/DJI_0012_5m_to_30m_szarvasnyomok_Kistape_2018.03.13._napos_kalaszos_T1
+ turkic extract /home/horvathandras/vatic/vatic/public/videouploads/DJI_0012_5m_to_30m_szarvasnyomok.avi /home/horvathandras/vatic/vatic/videos/DJI_0012_5m_to_30m_szarvasnyomok_Kistape_2018.03.13._napos_kalaszos_T1 --no-resize
ffmpeg version 2.8.14-0ubuntu0.16.04.1 Copyright (c) 2000-2018 the FFmpeg developers
  built with gcc 5.4.0 (Ubuntu 5.4.0-6ubuntu1~16.04.9) 20160609
  configuration: --prefix=/usr --extra-version=0ubuntu0.16.04.1 --build-suffix=-ffmpeg --toolchain=hardened --libdir=/usr/lib/x86_64-linux-gnu --incdir=/usr/include/x86_64-linux-gnu --cc=cc --cxx=g++ --enable-gpl --enable-shared --disable-stripping --disable-decoder=libopenjpeg --disable-decoder=libschroedinger --enable-avresample --enable-avisynth --enable-gnutls --enable-ladspa --enable-libass --enable-libbluray --enable-libbs2b --enable-libcaca --enable-libcdio --enable-libflite --enable-libfontconfig --enable-libfreetype --enable-libfribidi --enable-libgme --enable-libgsm --enable-libmodplug --enable-libmp3lame --enable-libopenjpeg --enable-libopus --enable-libpulse --enable-librtmp --enable-libschroedinger --enable-libshine --enable-libsnappy --enable-libsoxr --enable-libspeex --enable-libssh --enable-libtheora --enable-libtwolame --enable-libvorbis --enable-libvpx --enable-libwavpack --enable-libwebp --enable-libx265 --enable-libxvid --enable-libzvbi --enable-openal --enable-opengl --enable-x11grab --enable-libdc1394 --enable-libiec61883 --enable-libzmq --enable-frei0r --enable-libx264 --enable-libopencv
  libavutil      54. 31.100 / 54. 31.100
  libavcodec     56. 60.100 / 56. 60.100
  libavformat    56. 40.101 / 56. 40.101
  libavdevice    56.  4.100 / 56.  4.100
  libavfilter     5. 40.101 /  5. 40.101
  libavresample   2.  1.  0 /  2.  1.  0
  libswscale      3.  1.101 /  3.  1.101
  libswresample   1.  2.101 /  1.  2.101
  libpostproc    53.  3.100 / 53.  3.100
Input #0, mov,mp4,m4a,3gp,3g2,mj2, from '/home/horvathandras/vatic/vatic/public/videouploads/DJI_0012_5m_to_30m_szarvasnyomok.avi':
  Metadata:
    major_brand     : qt  
    minor_version   : 537986816
    compatible_brands: qt  
    creation_time   : 2018-03-13 15:16:27
    location        : +46.669896+18.712414+10.100
    location-{    : +46.669896+18.712414+10.100
    comment         : DE=None, Mode=P, DSW=0001
  Duration: 00:01:36.03, start: 0.000000, bitrate: 100048 kb/s
    Stream #0:0(eng): Video: h264 (High) (avc1 / 0x31637661), yuv420p(tv, bt709), 3840x2160 [SAR 1:1 DAR 16:9], 100041 kb/s, 29.97 fps, 29.97 tbr, 30k tbn, 59.94 tbc (default)
    Metadata:
      creation_time   : 2018-03-13 15:16:27
      handler_name    : DJI.AVC
      encoder         : AVC encoder
    Stream #0:1(eng): Data: none (priv / 0x76697270), 4 kb/s
    Metadata:
      creation_time   : 2018-03-13 15:16:27
      handler_name    : DJI.Meta
Please use -b:a or -b:v, -b is ambiguous
[swscaler @ 0x14307e0] deprecated pixel format used, make sure you did set range correctly
Output #0, image2, to '/tmp/pyvision-ffmpeg-430888600/%d.jpg':
  Metadata:
    major_brand     : qt  
    minor_version   : 537986816
    compatible_brands: qt  
    comment         : DE=None, Mode=P, DSW=0001
    location        : +46.669896+18.712414+10.100
    location-{    : +46.669896+18.712414+10.100
    encoder         : Lavf56.40.101
    Stream #0:0(eng): Video: mjpeg, yuvj420p(pc), 3840x2160 [SAR 1:1 DAR 16:9], q=2-31, 10000 kb/s, 29.97 fps, 29.97 tbn, 29.97 tbc (default)
    Metadata:
      creation_time   : 2018-03-13 15:16:27
      handler_name    : DJI.AVC
      encoder         : Lavc56.60.100 mjpeg
Stream mapping:
  Stream #0:0 -> #0:0 (h264 (native) -> mjpeg (native))
Press [q] to stop, [?] for help
frame=    1 fps=0.0 q=21.4 size=N/A time=00:00:00.03 bitrate=N/A    frame=    5 fps=3.6 q=24.8 size=N/A time=00:00:00.16 bitrate=N/A    frame=    9 fps=4.7 q=24.8 size=N/A time=00:00:00.30 bitrate=N/A    frame=   13 fps=5.2 q=24.8 size=N/A time=00:00:00.43 bitrate=N/A    frame=   17 fps=5.5 q=24.8 size=N/A time=00:00:00.56 bitrate=N/A    frame=   21 fps=5.8 q=24.8 size=N/A time=00:00:00.70 bitrate=N/A    frame=   25 fps=5.9 q=24.8 size=N/A time=00:00:00.83 bitrate=N/A    frame=   29 fps=6.1 q=24.8 size=N/A time=00:00:00.96 bitrate=N/A    frame=   33 fps=6.2 q=24.8 size=N/A time=00:00:01.10 bitrate=N/A    frame=   37 fps=6.3 q=24.8 size=N/A time=00:00:01.23 bitrate=N/A    frame=   41 fps=6.4 q=24.8 size=N/A time=00:00:01.36 bitrate=N/A    frame=   45 fps=6.5 q=24.8 size=N/A time=00:00:01.50 bitrate=N/A    frame=   49 fps=6.5 q=24.8 size=N/A time=00:00:01.63 bitrate=N/A    frame=   53 fps=6.6 q=24.8 size=N/A time=00:00:01.76 bitrate=N/A    frame=   57 fps=6.6 q=24.8 size=N/A time=00:00:01.90 bitrate=N/A    frame=   61 fps=6.7 q=24.8 size=N/A time=00:00:02.03 bitrate=N/A    frame=   65 fps=6.7 q=24.8 size=N/A time=00:00:02.16 bitrate=N/A    frame=   69 fps=6.7 q=24.8 size=N/A time=00:00:02.30 bitrate=N/A    frame=   73 fps=6.8 q=24.8 size=N/A time=00:00:02.43 bitrate=N/A    frame=   77 fps=6.8 q=24.8 size=N/A time=00:00:02.56 bitrate=N/A    frame=   81 fps=6.8 q=24.8 size=N/A time=00:00:02.70 bitrate=N/A    frame=   85 fps=6.8 q=24.8 size=N/A time=00:00:02.83 bitrate=N/A    frame=   89 fps=6.9 q=24.8 size=N/A time=00:00:02.96 bitrate=N/A    frame=   93 fps=6.9 q=24.8 size=N/A time=00:00:03.10 bitrate=N/A    frame=   97 fps=6.9 q=24.8 size=N/A time=00:00:03.23 bitrate=N/A    frame=  101 fps=6.9 q=24.8 size=N/A time=00:00:03.37 bitrate=N/A    frame=  105 fps=6.9 q=24.8 size=N/A time=00:00:03.50 bitrate=N/A    frame=  109 fps=6.9 q=24.8 size=N/A time=00:00:03.63 bitrate=N/A    frame=  113 fps=6.9 q=24.8 size=N/A time=00:00:03.77 bitrate=N/A    frame=  117 fps=7.0 q=24.8 size=N/A time=00:00:03.90 bitrate=N/A    frame=  121 fps=7.0 q=24.8 size=N/A time=00:00:04.03 bitrate=N/A    frame=  125 fps=7.0 q=24.8 size=N/A time=00:00:04.17 bitrate=N/A    frame=  129 fps=7.0 q=24.8 size=N/A time=00:00:04.30 bitrate=N/A    frame=  133 fps=7.0 q=24.8 size=N/A time=00:00:04.43 bitrate=N/A    frame=  137 fps=7.0 q=24.8 size=N/A time=00:00:04.57 bitrate=N/A    frame=  141 fps=7.0 q=24.8 size=N/A time=00:00:04.70 bitrate=N/A    frame=  145 fps=7.0 q=24.8 size=N/A time=00:00:04.83 bitrate=N/A    frame=  149 fps=7.0 q=24.8 size=N/A time=00:00:04.97 bitrate=N/A    frame=  153 fps=7.0 q=24.8 size=N/A time=00:00:05.10 bitrate=N/A    frame=  157 fps=7.0 q=24.8 size=N/A time=00:00:05.23 bitrate=N/A    frame=  161 fps=7.0 q=24.8 size=N/A time=00:00:05.37 bitrate=N/A    frame=  165 fps=7.0 q=24.8 size=N/A time=00:00:05.50 bitrate=N/A    frame=  169 fps=7.0 q=24.8 size=N/A time=00:00:05.63 bitrate=N/A    frame=  173 fps=7.0 q=24.8 size=N/A time=00:00:05.77 bitrate=N/A    frame=  177 fps=7.0 q=24.8 size=N/A time=00:00:05.90 bitrate=N/A    frame=  181 fps=7.0 q=24.8 size=N/A time=00:00:06.03 bitrate=N/A    frame=  185 fps=7.0 q=24.8 size=N/A time=00:00:06.17 bitrate=N/A    frame=  189 fps=7.0 q=24.8 size=N/A time=00:00:06.30 bitrate=N/A    frame=  193 fps=7.1 q=24.8 size=N/A time=00:00:06.43 bitrate=N/A    frame=  197 fps=7.1 q=24.8 size=N/A time=00:00:06.57 bitrate=N/A    frame=  201 fps=7.1 q=24.8 size=N/A time=00:00:06.70 bitrate=N/A    frame=  205 fps=7.1 q=24.8 size=N/A time=00:00:06.84 bitrate=N/A    frame=  209 fps=7.1 q=24.8 size=N/A time=00:00:06.97 bitrate=N/A    frame=  213 fps=7.1 q=24.8 size=N/A time=00:00:07.10 bitrate=N/A    frame=  217 fps=7.1 q=24.8 size=N/A time=00:00:07.24 bitrate=N/A    frame=  221 fps=7.1 q=24.8 size=N/A time=00:00:07.37 bitrate=N/A    frame=  225 fps=7.1 q=24.8 size=N/A time=00:00:07.50 bitrate=N/A    frame=  229 fps=7.1 q=24.8 size=N/A time=00:00:07.64 bitrate=N/A    frame=  233 fps=7.1 q=24.8 size=N/A time=00:00:07.77 bitrate=N/A    frame=  237 fps=7.1 q=24.8 size=N/A time=00:00:07.90 bitrate=N/A    frame=  241 fps=7.1 q=24.8 size=N/A time=00:00:08.04 bitrate=N/A    frame=  245 fps=7.1 q=24.8 size=N/A time=00:00:08.17 bitrate=N/A    frame=  249 fps=7.1 q=24.8 size=N/A time=00:00:08.30 bitrate=N/A    frame=  253 fps=7.1 q=24.8 size=N/A time=00:00:08.44 bitrate=N/A    frame=  257 fps=7.1 q=24.8 size=N/A time=00:00:08.57 bitrate=N/A    frame=  261 fps=7.1 q=24.8 size=N/A time=00:00:08.70 bitrate=N/A    frame=  265 fps=7.1 q=24.8 size=N/A time=00:00:08.84 bitrate=N/A    frame=  269 fps=7.1 q=24.8 size=N/A time=00:00:08.97 bitrate=N/A    frame=  273 fps=7.1 q=24.8 size=N/A time=00:00:09.10 bitrate=N/A    frame=  277 fps=7.1 q=24.8 size=N/A time=00:00:09.24 bitrate=N/A    frame=  281 fps=7.1 q=24.8 size=N/A time=00:00:09.37 bitrate=N/A    frame=  285 fps=7.1 q=24.8 size=N/A time=00:00:09.50 bitrate=N/A    frame=  289 fps=7.1 q=24.8 size=N/A time=00:00:09.64 bitrate=N/A    frame=  293 fps=7.1 q=24.8 size=N/A time=00:00:09.77 bitrate=N/A    frame=  297 fps=7.1 q=24.8 size=N/A time=00:00:09.90 bitrate=N/A    frame=  301 fps=7.1 q=24.8 size=N/A time=00:00:10.04 bitrate=N/A    frame=  305 fps=7.1 q=24.8 size=N/A time=00:00:10.17 bitrate=N/A    frame=  309 fps=7.1 q=24.8 size=N/A time=00:00:10.31 bitrate=N/A    frame=  313 fps=7.1 q=24.8 size=N/A time=00:00:10.44 bitrate=N/A    frame=  317 fps=7.1 q=24.8 size=N/A time=00:00:10.57 bitrate=N/A    frame=  321 fps=7.1 q=24.8 size=N/A time=00:00:10.71 bitrate=N/A    frame=  325 fps=7.1 q=24.8 size=N/A time=00:00:10.84 bitrate=N/A    frame=  329 fps=7.1 q=24.8 size=N/A time=00:00:10.97 bitrate=N/A    frame=  333 fps=7.1 q=24.8 size=N/A time=00:00:11.11 bitrate=N/A    frame=  337 fps=7.1 q=24.8 size=N/A time=00:00:11.24 bitrate=N/A    frame=  341 fps=7.1 q=24.8 size=N/A time=00:00:11.37 bitrate=N/A    frame=  345 fps=7.1 q=24.8 size=N/A time=00:00:11.51 bitrate=N/A    frame=  349 fps=7.1 q=24.8 size=N/A time=00:00:11.64 bitrate=N/A    frame=  353 fps=7.1 q=24.8 size=N/A time=00:00:11.77 bitrate=N/A    frame=  357 fps=7.1 q=24.8 size=N/A time=00:00:11.91 bitrate=N/A    frame=  361 fps=7.1 q=24.8 size=N/A time=00:00:12.04 bitrate=N/A    frame=  365 fps=7.1 q=24.8 size=N/A time=00:00:12.17 bitrate=N/A    frame=  369 fps=7.1 q=24.8 size=N/A time=00:00:12.31 bitrate=N/A    frame=  373 fps=7.1 q=24.8 size=N/A time=00:00:12.44 bitrate=N/A    frame=  377 fps=7.1 q=24.8 size=N/A time=00:00:12.57 bitrate=N/A    frame=  381 fps=7.1 q=24.8 size=N/A time=00:00:12.71 bitrate=N/A    frame=  385 fps=7.1 q=24.8 size=N/A time=00:00:12.84 bitrate=N/A    frame=  389 fps=7.1 q=24.8 size=N/A time=00:00:12.97 bitrate=N/A    frame=  393 fps=7.1 q=24.8 size=N/A time=00:00:13.11 bitrate=N/A    frame=  397 fps=7.1 q=24.8 size=N/A time=00:00:13.24 bitrate=N/A    frame=  401 fps=7.1 q=24.8 size=N/A time=00:00:13.38 bitrate=N/A    frame=  405 fps=7.1 q=24.8 size=N/A time=00:00:13.51 bitrate=N/A    frame=  409 fps=7.1 q=24.8 size=N/A time=00:00:13.64 bitrate=N/A    frame=  413 fps=7.1 q=24.8 size=N/A time=00:00:13.78 bitrate=N/A    frame=  417 fps=7.2 q=24.8 size=N/A time=00:00:13.91 bitrate=N/A    frame=  421 fps=7.2 q=24.8 size=N/A time=00:00:14.04 bitrate=N/A    frame=  425 fps=7.2 q=24.8 size=N/A time=00:00:14.18 bitrate=N/A    frame=  429 fps=7.2 q=24.8 size=N/A time=00:00:14.31 bitrate=N/A    frame=  433 fps=7.2 q=24.8 size=N/A time=00:00:14.44 bitrate=N/A    frame=  437 fps=7.2 q=24.8 size=N/A time=00:00:14.58 bitrate=N/A    frame=  441 fps=7.2 q=24.8 size=N/A time=00:00:14.71 bitrate=N/A    frame=  445 fps=7.2 q=24.8 size=N/A time=00:00:14.84 bitrate=N/A    frame=  449 fps=7.2 q=24.8 size=N/A time=00:00:14.98 bitrate=N/A    frame=  453 fps=7.2 q=24.8 size=N/A time=00:00:15.11 bitrate=N/A    frame=  457 fps=7.2 q=24.8 size=N/A time=00:00:15.24 bitrate=N/A    frame=  461 fps=7.2 q=24.8 size=N/A time=00:00:15.38 bitrate=N/A    frame=  465 fps=7.2 q=24.8 size=N/A time=00:00:15.51 bitrate=N/A    frame=  469 fps=7.2 q=24.8 size=N/A time=00:00:15.64 bitrate=N/A    frame=  473 fps=7.2 q=24.8 size=N/A time=00:00:15.78 bitrate=N/A    frame=  477 fps=7.2 q=24.8 size=N/A time=00:00:15.91 bitrate=N/A    frame=  481 fps=7.2 q=24.8 size=N/A time=00:00:16.04 bitrate=N/A    frame=  485 fps=7.2 q=24.8 size=N/A time=00:00:16.18 bitrate=N/A    frame=  489 fps=7.2 q=24.8 size=N/A time=00:00:16.31 bitrate=N/A    frame=  493 fps=7.2 q=24.8 size=N/A time=00:00:16.44 bitrate=N/A    frame=  497 fps=7.2 q=24.8 size=N/A time=00:00:16.58 bitrate=N/A    frame=  501 fps=7.2 q=24.8 size=N/A time=00:00:16.71 bitrate=N/A    frame=  505 fps=7.2 q=24.8 size=N/A time=00:00:16.85 bitrate=N/A    frame=  509 fps=7.2 q=24.8 size=N/A time=00:00:16.98 bitrate=N/A    frame=  513 fps=7.2 q=24.8 size=N/A time=00:00:17.11 bitrate=N/A    frame=  517 fps=7.2 q=24.8 size=N/A time=00:00:17.25 bitrate=N/A    frame=  521 fps=7.2 q=24.8 size=N/A time=00:00:17.38 bitrate=N/A    frame=  525 fps=7.2 q=24.8 size=N/A time=00:00:17.51 bitrate=N/A    frame=  529 fps=7.2 q=24.8 size=N/A time=00:00:17.65 bitrate=N/A    frame=  533 fps=7.2 q=24.8 size=N/A time=00:00:17.78 bitrate=N/A    frame=  537 fps=7.2 q=24.8 size=N/A time=00:00:17.91 bitrate=N/A    frame=  541 fps=7.2 q=24.8 size=N/A time=00:00:18.05 bitrate=N/A    frame=  545 fps=7.2 q=24.8 size=N/A time=00:00:18.18 bitrate=N/A    frame=  549 fps=7.2 q=24.8 size=N/A time=00:00:18.31 bitrate=N/A    frame=  553 fps=7.2 q=24.8 size=N/A time=00:00:18.45 bitrate=N/A    frame=  557 fps=7.2 q=24.8 size=N/A time=00:00:18.58 bitrate=N/A    frame=  561 fps=7.2 q=24.8 size=N/A time=00:00:18.71 bitrate=N/A    frame=  565 fps=7.2 q=24.8 size=N/A time=00:00:18.85 bitrate=N/A    frame=  569 fps=7.2 q=24.8 size=N/A time=00:00:18.98 bitrate=N/A    frame=  573 fps=7.2 q=24.8 size=N/A time=00:00:19.11 bitrate=N/A    frame=  577 fps=7.2 q=24.8 size=N/A time=00:00:19.25 bitrate=N/A    frame=  581 fps=7.2 q=24.8 size=N/A time=00:00:19.38 bitrate=N/A    frame=  585 fps=7.2 q=24.8 size=N/A time=00:00:19.51 bitrate=N/A    frame=  589 fps=7.2 q=24.8 size=N/A time=00:00:19.65 bitrate=N/A    frame=  593 fps=7.2 q=24.8 size=N/A time=00:00:19.78 bitrate=N/A    frame=  597 fps=7.2 q=24.8 size=N/A time=00:00:19.91 bitrate=N/A    frame=  601 fps=7.2 q=24.8 size=N/A time=00:00:20.05 bitrate=N/A    frame=  605 fps=7.2 q=24.8 size=N/A time=00:00:20.18 bitrate=N/A    frame=  609 fps=7.2 q=24.8 size=N/A time=00:00:20.32 bitrate=N/A    frame=  613 fps=7.2 q=24.8 size=N/A time=00:00:20.45 bitrate=N/A    frame=  617 fps=7.2 q=24.8 size=N/A time=00:00:20.58 bitrate=N/A    frame=  621 fps=7.2 q=24.8 size=N/A time=00:00:20.72 bitrate=N/A    frame=  625 fps=7.2 q=24.8 size=N/A time=00:00:20.85 bitrate=N/A    frame=  629 fps=7.2 q=24.8 size=N/A time=00:00:20.98 bitrate=N/A    frame=  633 fps=7.2 q=24.8 size=N/A time=00:00:21.12 bitrate=N/A    frame=  637 fps=7.3 q=24.8 size=N/A time=00:00:21.25 bitrate=N/A    frame=  641 fps=7.3 q=24.8 size=N/A time=00:00:21.38 bitrate=N/A    frame=  645 fps=7.3 q=24.8 size=N/A time=00:00:21.52 bitrate=N/A    frame=  649 fps=7.3 q=24.8 size=N/A time=00:00:21.65 bitrate=N/A    frame=  653 fps=7.3 q=24.8 size=N/A time=00:00:21.78 bitrate=N/A    frame=  657 fps=7.3 q=24.8 size=N/A time=00:00:21.92 bitrate=N/A    frame=  661 fps=7.3 q=24.8 size=N/A time=00:00:22.05 bitrate=N/A    frame=  665 fps=7.3 q=24.8 size=N/A time=00:00:22.18 bitrate=N/A    frame=  669 fps=7.3 q=24.8 size=N/A time=00:00:22.32 bitrate=N/A    frame=  673 fps=7.3 q=24.8 size=N/A time=00:00:22.45 bitrate=N/A    frame=  677 fps=7.3 q=24.8 size=N/A time=00:00:22.58 bitrate=N/A    frame=  681 fps=7.3 q=24.8 size=N/A time=00:00:22.72 bitrate=N/A    frame=  685 fps=7.3 q=24.8 size=N/A time=00:00:22.85 bitrate=N/A    frame=  689 fps=7.3 q=24.8 size=N/A time=00:00:22.98 bitrate=N/A    frame=  693 fps=7.3 q=24.8 size=N/A time=00:00:23.12 bitrate=N/A    frame=  697 fps=7.3 q=24.8 size=N/A time=00:00:23.25 bitrate=N/A    frame=  701 fps=7.3 q=24.8 size=N/A time=00:00:23.39 bitrate=N/A    frame=  705 fps=7.3 q=24.8 size=N/A time=00:00:23.52 bitrate=N/A    frame=  709 fps=7.3 q=24.8 size=N/A time=00:00:23.65 bitrate=N/A    frame=  713 fps=7.3 q=24.8 size=N/A time=00:00:23.79 bitrate=N/A    frame=  717 fps=7.3 q=24.8 size=N/A time=00:00:23.92 bitrate=N/A    frame=  721 fps=7.3 q=24.8 size=N/A time=00:00:24.05 bitrate=N/A    frame=  725 fps=7.3 q=24.8 size=N/A time=00:00:24.19 bitrate=N/A    frame=  729 fps=7.3 q=24.8 size=N/A time=00:00:24.32 bitrate=N/A    frame=  733 fps=7.3 q=24.8 size=N/A time=00:00:24.45 bitrate=N/A    frame=  737 fps=7.3 q=24.8 size=N/A time=00:00:24.59 bitrate=N/A    frame=  741 fps=7.3 q=24.8 size=N/A time=00:00:24.72 bitrate=N/A    frame=  745 fps=7.3 q=24.8 size=N/A time=00:00:24.85 bitrate=N/A    frame=  749 fps=7.3 q=24.8 size=N/A time=00:00:24.99 bitrate=N/A    frame=  753 fps=7.3 q=24.8 size=N/A time=00:00:25.12 bitrate=N/A    frame=  757 fps=7.3 q=24.8 size=N/A time=00:00:25.25 bitrate=N/A    frame=  761 fps=7.3 q=24.8 size=N/A time=00:00:25.39 bitrate=N/A    frame=  765 fps=7.3 q=24.8 size=N/A time=00:00:25.52 bitrate=N/A    frame=  769 fps=7.3 q=24.8 size=N/A time=00:00:25.65 bitrate=N/A    frame=  773 fps=7.3 q=24.8 size=N/A time=00:00:25.79 bitrate=N/A    frame=  777 fps=7.3 q=24.8 size=N/A time=00:00:25.92 bitrate=N/A    frame=  781 fps=7.3 q=24.8 size=N/A time=00:00:26.05 bitrate=N/A    frame=  785 fps=7.3 q=24.8 size=N/A time=00:00:26.19 bitrate=N/A    frame=  789 fps=7.3 q=24.8 size=N/A time=00:00:26.32 bitrate=N/A    frame=  793 fps=7.3 q=24.8 size=N/A time=00:00:26.45 bitrate=N/A    frame=  797 fps=7.3 q=24.8 size=N/A time=00:00:26.59 bitrate=N/A    frame=  801 fps=7.3 q=24.8 size=N/A time=00:00:26.72 bitrate=N/A    frame=  805 fps=7.3 q=24.8 size=N/A time=00:00:26.86 bitrate=N/A    frame=  809 fps=7.3 q=24.8 size=N/A time=00:00:26.99 bitrate=N/A    frame=  813 fps=7.3 q=24.8 size=N/A time=00:00:27.12 bitrate=N/A    frame=  817 fps=7.3 q=24.8 size=N/A time=00:00:27.26 bitrate=N/A    frame=  821 fps=7.3 q=24.8 size=N/A time=00:00:27.39 bitrate=N/A    frame=  825 fps=7.3 q=24.8 size=N/A time=00:00:27.52 bitrate=N/A    frame=  829 fps=7.3 q=24.8 size=N/A time=00:00:27.66 bitrate=N/A    frame=  833 fps=7.3 q=24.8 size=N/A time=00:00:27.79 bitrate=N/A    frame=  837 fps=7.3 q=24.8 size=N/A time=00:00:27.92 bitrate=N/A    frame=  841 fps=7.3 q=24.8 size=N/A time=00:00:28.06 bitrate=N/A    frame=  845 fps=7.3 q=24.8 size=N/A time=00:00:28.19 bitrate=N/A    frame=  849 fps=7.3 q=24.8 size=N/A time=00:00:28.32 bitrate=N/A    frame=  853 fps=7.3 q=24.8 size=N/A time=00:00:28.46 bitrate=N/A    frame=  857 fps=7.3 q=24.8 size=N/A time=00:00:28.59 bitrate=N/A    frame=  861 fps=7.4 q=24.8 size=N/A time=00:00:28.72 bitrate=N/A    frame=  865 fps=7.4 q=24.8 size=N/A time=00:00:28.86 bitrate=N/A    frame=  869 fps=7.4 q=24.8 size=N/A time=00:00:28.99 bitrate=N/A    frame=  873 fps=7.4 q=24.8 size=N/A time=00:00:29.12 bitrate=N/A    frame=  877 fps=7.4 q=24.8 size=N/A time=00:00:29.26 bitrate=N/A    frame=  881 fps=7.4 q=24.8 size=N/A time=00:00:29.39 bitrate=N/A    frame=  885 fps=7.4 q=24.8 size=N/A time=00:00:29.52 bitrate=N/A    frame=  889 fps=7.4 q=24.8 size=N/A time=00:00:29.66 bitrate=N/A    frame=  893 fps=7.4 q=24.8 size=N/A time=00:00:29.79 bitrate=N/A    frame=  897 fps=7.4 q=24.8 size=N/A time=00:00:29.92 bitrate=N/A    frame=  901 fps=7.4 q=24.8 size=N/A time=00:00:30.06 bitrate=N/A    frame=  905 fps=7.4 q=24.8 size=N/A time=00:00:30.19 bitrate=N/A    frame=  909 fps=7.4 q=24.8 size=N/A time=00:00:30.33 bitrate=N/A    frame=  913 fps=7.4 q=24.8 size=N/A time=00:00:30.46 bitrate=N/A    frame=  917 fps=7.4 q=24.8 size=N/A time=00:00:30.59 bitrate=N/A    frame=  921 fps=7.4 q=24.8 size=N/A time=00:00:30.73 bitrate=N/A    frame=  925 fps=7.4 q=24.8 size=N/A time=00:00:30.86 bitrate=N/A    frame=  929 fps=7.4 q=24.8 size=N/A time=00:00:30.99 bitrate=N/A    frame=  933 fps=7.4 q=24.8 size=N/A time=00:00:31.13 bitrate=N/A    frame=  937 fps=7.4 q=24.8 size=N/A time=00:00:31.26 bitrate=N/A    frame=  941 fps=7.4 q=24.8 size=N/A time=00:00:31.39 bitrate=N/A    frame=  945 fps=7.4 q=24.8 size=N/A time=00:00:31.53 bitrate=N/A    frame=  949 fps=7.4 q=24.8 size=N/A time=00:00:31.66 bitrate=N/A    frame=  953 fps=7.4 q=24.8 size=N/A time=00:00:31.79 bitrate=N/A    frame=  957 fps=7.4 q=24.8 size=N/A time=00:00:31.93 bitrate=N/A    frame=  961 fps=7.4 q=24.8 size=N/A time=00:00:32.06 bitrate=N/A    frame=  965 fps=7.4 q=24.8 size=N/A time=00:00:32.19 bitrate=N/A    frame=  969 fps=7.4 q=24.8 size=N/A time=00:00:32.33 bitrate=N/A    frame=  973 fps=7.4 q=24.8 size=N/A time=00:00:32.46 bitrate=N/A    frame=  977 fps=7.4 q=24.8 size=N/A time=00:00:32.59 bitrate=N/A    frame=  981 fps=7.4 q=24.8 size=N/A time=00:00:32.73 bitrate=N/A    frame=  985 fps=7.4 q=24.8 size=N/A time=00:00:32.86 bitrate=N/A    frame=  989 fps=7.4 q=24.8 size=N/A time=00:00:32.99 bitrate=N/A    frame=  993 fps=7.4 q=24.8 size=N/A time=00:00:33.13 bitrate=N/A    frame=  997 fps=7.4 q=24.8 size=N/A time=00:00:33.26 bitrate=N/A    frame= 1001 fps=7.4 q=24.8 size=N/A time=00:00:33.40 bitrate=N/A    frame= 1005 fps=7.4 q=24.8 size=N/A time=00:00:33.53 bitrate=N/A    frame= 1009 fps=7.4 q=24.8 size=N/A time=00:00:33.66 bitrate=N/A    frame= 1013 fps=7.4 q=24.8 size=N/A time=00:00:33.80 bitrate=N/A    frame= 1017 fps=7.4 q=24.8 size=N/A time=00:00:33.93 bitrate=N/A    frame= 1021 fps=7.4 q=24.8 size=N/A time=00:00:34.06 bitrate=N/A    frame= 1025 fps=7.4 q=24.8 size=N/A time=00:00:34.20 bitrate=N/A    frame= 1029 fps=7.4 q=24.8 size=N/A time=00:00:34.33 bitrate=N/A    frame= 1033 fps=7.4 q=24.8 size=N/A time=00:00:34.46 bitrate=N/A    frame= 1037 fps=7.4 q=24.8 size=N/A time=00:00:34.60 bitrate=N/A    frame= 1041 fps=7.4 q=24.8 size=N/A time=00:00:34.73 bitrate=N/A    frame= 1045 fps=7.4 q=24.8 size=N/A time=00:00:34.86 bitrate=N/A    frame= 1049 fps=7.4 q=24.8 size=N/A time=00:00:35.00 bitrate=N/A    frame= 1053 fps=7.4 q=24.8 size=N/A time=00:00:35.13 bitrate=N/A    frame= 1057 fps=7.4 q=24.8 size=N/A time=00:00:35.26 bitrate=N/A    frame= 1061 fps=7.4 q=24.8 size=N/A time=00:00:35.40 bitrate=N/A    frame= 1065 fps=7.4 q=24.8 size=N/A time=00:00:35.53 bitrate=N/A    frame= 1069 fps=7.4 q=24.8 size=N/A time=00:00:35.66 bitrate=N/A    frame= 1073 fps=7.4 q=24.8 size=N/A time=00:00:35.80 bitrate=N/A    frame= 1077 fps=7.4 q=24.8 size=N/A time=00:00:35.93 bitrate=N/A    frame= 1081 fps=7.4 q=24.8 size=N/A time=00:00:36.06 bitrate=N/A    frame= 1085 fps=7.4 q=24.8 size=N/A time=00:00:36.20 bitrate=N/A    frame= 1089 fps=7.4 q=24.8 size=N/A time=00:00:36.33 bitrate=N/A    frame= 1093 fps=7.4 q=24.8 size=N/A time=00:00:36.46 bitrate=N/A    frame= 1097 fps=7.4 q=24.8 size=N/A time=00:00:36.60 bitrate=N/A    frame= 1101 fps=7.4 q=24.8 size=N/A time=00:00:36.73 bitrate=N/A    frame= 1105 fps=7.4 q=24.8 size=N/A time=00:00:36.87 bitrate=N/A    frame= 1109 fps=7.4 q=24.8 size=N/A time=00:00:37.00 bitrate=N/A    frame= 1113 fps=7.4 q=24.8 size=N/A time=00:00:37.13 bitrate=N/A    frame= 1117 fps=7.4 q=24.8 size=N/A time=00:00:37.27 bitrate=N/A    frame= 1121 fps=7.4 q=24.8 size=N/A time=00:00:37.40 bitrate=N/A    frame= 1125 fps=7.4 q=24.8 size=N/A time=00:00:37.53 bitrate=N/A    frame= 1129 fps=7.4 q=24.8 size=N/A time=00:00:37.67 bitrate=N/A    frame= 1133 fps=7.4 q=24.8 size=N/A time=00:00:37.80 bitrate=N/A    frame= 1137 fps=7.4 q=24.8 size=N/A time=00:00:37.93 bitrate=N/A    frame= 1141 fps=7.4 q=24.8 size=N/A time=00:00:38.07 bitrate=N/A    frame= 1145 fps=7.5 q=24.8 size=N/A time=00:00:38.20 bitrate=N/A    frame= 1149 fps=7.5 q=24.8 size=N/A time=00:00:38.33 bitrate=N/A    frame= 1153 fps=7.5 q=24.8 size=N/A time=00:00:38.47 bitrate=N/A    frame= 1157 fps=7.5 q=24.8 size=N/A time=00:00:38.60 bitrate=N/A    frame= 1161 fps=7.5 q=24.8 size=N/A time=00:00:38.73 bitrate=N/A    frame= 1165 fps=7.5 q=24.8 size=N/A time=00:00:38.87 bitrate=N/A    frame= 1169 fps=7.5 q=24.8 size=N/A time=00:00:39.00 bitrate=N/A    frame= 1173 fps=7.5 q=24.8 size=N/A time=00:00:39.13 bitrate=N/A    frame= 1177 fps=7.5 q=24.8 size=N/A time=00:00:39.27 bitrate=N/A    frame= 1181 fps=7.5 q=24.8 size=N/A time=00:00:39.40 bitrate=N/A    frame= 1185 fps=7.5 q=24.8 size=N/A time=00:00:39.53 bitrate=N/A    frame= 1189 fps=7.5 q=24.8 size=N/A time=00:00:39.67 bitrate=N/A    frame= 1193 fps=7.5 q=24.8 size=N/A time=00:00:39.80 bitrate=N/A    frame= 1197 fps=7.5 q=24.8 size=N/A time=00:00:39.93 bitrate=N/A    frame= 1201 fps=7.5 q=24.8 size=N/A time=00:00:40.07 bitrate=N/A    frame= 1205 fps=7.5 q=24.8 size=N/A time=00:00:40.20 bitrate=N/A    frame= 1209 fps=7.5 q=24.8 size=N/A time=00:00:40.34 bitrate=N/A    frame= 1213 fps=7.5 q=24.8 size=N/A time=00:00:40.47 bitrate=N/A    frame= 1217 fps=7.5 q=24.8 size=N/A time=00:00:40.60 bitrate=N/A    frame= 1221 fps=7.5 q=24.8 size=N/A time=00:00:40.74 bitrate=N/A    frame= 1225 fps=7.5 q=24.8 size=N/A time=00:00:40.87 bitrate=N/A    frame= 1229 fps=7.5 q=24.8 size=N/A time=00:00:41.00 bitrate=N/A    frame= 1233 fps=7.5 q=24.8 size=N/A time=00:00:41.14 bitrate=N/A    frame= 1237 fps=7.5 q=24.8 size=N/A time=00:00:41.27 bitrate=N/A    frame= 1241 fps=7.5 q=24.8 size=N/A time=00:00:41.40 bitrate=N/A    frame= 1245 fps=7.5 q=24.8 size=N/A time=00:00:41.54 bitrate=N/A    frame= 1249 fps=7.5 q=24.8 size=N/A time=00:00:41.67 bitrate=N/A    frame= 1253 fps=7.5 q=24.8 size=N/A time=00:00:41.80 bitrate=N/A    frame= 1257 fps=7.5 q=24.8 size=N/A time=00:00:41.94 bitrate=N/A    frame= 1261 fps=7.5 q=24.8 size=N/A time=00:00:42.07 bitrate=N/A    frame= 1265 fps=7.5 q=24.8 size=N/A time=00:00:42.20 bitrate=N/A    frame= 1269 fps=7.5 q=24.8 size=N/A time=00:00:42.34 bitrate=N/A    frame= 1273 fps=7.5 q=24.8 size=N/A time=00:00:42.47 bitrate=N/A    frame= 1277 fps=7.5 q=24.8 size=N/A time=00:00:42.60 bitrate=N/A    frame= 1281 fps=7.5 q=24.8 size=N/A time=00:00:42.74 bitrate=N/A    frame= 1285 fps=7.5 q=24.8 size=N/A time=00:00:42.87 bitrate=N/A    frame= 1289 fps=7.5 q=24.8 size=N/A time=00:00:43.00 bitrate=N/A    frame= 1293 fps=7.5 q=24.8 size=N/A time=00:00:43.14 bitrate=N/A    frame= 1297 fps=7.5 q=24.8 size=N/A time=00:00:43.27 bitrate=N/A    frame= 1301 fps=7.5 q=24.8 size=N/A time=00:00:43.41 bitrate=N/A    frame= 1305 fps=7.5 q=24.8 size=N/A time=00:00:43.54 bitrate=N/A    frame= 1309 fps=7.5 q=24.8 size=N/A time=00:00:43.67 bitrate=N/A    frame= 1313 fps=7.5 q=24.8 size=N/A time=00:00:43.81 bitrate=N/A    frame= 1317 fps=7.5 q=24.8 size=N/A time=00:00:43.94 bitrate=N/A    frame= 1321 fps=7.5 q=24.8 size=N/A time=00:00:44.07 bitrate=N/A    frame= 1325 fps=7.5 q=24.8 size=N/A time=00:00:44.21 bitrate=N/A    frame= 1329 fps=7.5 q=24.8 size=N/A time=00:00:44.34 bitrate=N/A    frame= 1333 fps=7.5 q=24.8 size=N/A time=00:00:44.47 bitrate=N/A    frame= 1337 fps=7.5 q=24.8 size=N/A time=00:00:44.61 bitrate=N/A    frame= 1341 fps=7.5 q=24.8 size=N/A time=00:00:44.74 bitrate=N/A    frame= 1345 fps=7.5 q=24.8 size=N/A time=00:00:44.87 bitrate=N/A    frame= 1349 fps=7.5 q=24.8 size=N/A time=00:00:45.01 bitrate=N/A    frame= 1353 fps=7.5 q=24.8 size=N/A time=00:00:45.14 bitrate=N/A    frame= 1357 fps=7.5 q=24.8 size=N/A time=00:00:45.27 bitrate=N/A    frame= 1361 fps=7.5 q=24.8 size=N/A time=00:00:45.41 bitrate=N/A    frame= 1365 fps=7.5 q=24.8 size=N/A time=00:00:45.54 bitrate=N/A    frame= 1369 fps=7.5 q=24.8 size=N/A time=00:00:45.67 bitrate=N/A    frame= 1373 fps=7.5 q=24.8 size=N/A time=00:00:45.81 bitrate=N/A    frame= 1377 fps=7.5 q=24.8 size=N/A time=00:00:45.94 bitrate=N/A    frame= 1381 fps=7.5 q=24.8 size=N/A time=00:00:46.07 bitrate=N/A    frame= 1385 fps=7.5 q=24.8 size=N/A time=00:00:46.21 bitrate=N/A    frame= 1389 fps=7.5 q=24.8 size=N/A time=00:00:46.34 bitrate=N/A    frame= 1393 fps=7.5 q=24.8 size=N/A time=00:00:46.47 bitrate=N/A    frame= 1397 fps=7.5 q=24.8 size=N/A time=00:00:46.61 bitrate=N/A    frame= 1401 fps=7.5 q=24.8 size=N/A time=00:00:46.74 bitrate=N/A    frame= 1405 fps=7.5 q=24.8 size=N/A time=00:00:46.88 bitrate=N/A    frame= 1409 fps=7.5 q=24.8 size=N/A time=00:00:47.01 bitrate=N/A    frame= 1413 fps=7.5 q=24.8 size=N/A time=00:00:47.14 bitrate=N/A    frame= 1417 fps=7.5 q=24.8 size=N/A time=00:00:47.28 bitrate=N/A    frame= 1421 fps=7.5 q=24.8 size=N/A time=00:00:47.41 bitrate=N/A    frame= 1425 fps=7.5 q=24.8 size=N/A time=00:00:47.54 bitrate=N/A    frame= 1429 fps=7.5 q=24.8 size=N/A time=00:00:47.68 bitrate=N/A    frame= 1433 fps=7.5 q=24.8 size=N/A time=00:00:47.81 bitrate=N/A    frame= 1437 fps=7.5 q=24.8 size=N/A time=00:00:47.94 bitrate=N/A    frame= 1441 fps=7.5 q=24.8 size=N/A time=00:00:48.08 bitrate=N/A    frame= 1445 fps=7.5 q=24.8 size=N/A time=00:00:48.21 bitrate=N/A    frame= 1449 fps=7.5 q=24.8 size=N/A time=00:00:48.34 bitrate=N/A    frame= 1453 fps=7.5 q=24.8 size=N/A time=00:00:48.48 bitrate=N/A    frame= 1457 fps=7.5 q=24.8 size=N/A time=00:00:48.61 bitrate=N/A    frame= 1461 fps=7.5 q=24.8 size=N/A time=00:00:48.74 bitrate=N/A    frame= 1465 fps=7.5 q=24.8 size=N/A time=00:00:48.88 bitrate=N/A    frame= 1469 fps=7.5 q=24.8 size=N/A time=00:00:49.01 bitrate=N/A    frame= 1473 fps=7.5 q=24.8 size=N/A time=00:00:49.14 bitrate=N/A    frame= 1477 fps=7.5 q=24.8 size=N/A time=00:00:49.28 bitrate=N/A    frame= 1481 fps=7.5 q=24.8 size=N/A time=00:00:49.41 bitrate=N/A    frame= 1485 fps=7.5 q=24.8 size=N/A time=00:00:49.54 bitrate=N/A    frame= 1489 fps=7.5 q=24.8 size=N/A time=00:00:49.68 bitrate=N/A    frame= 1493 fps=7.5 q=24.8 size=N/A time=00:00:49.81 bitrate=N/A    frame= 1497 fps=7.5 q=24.8 size=N/A time=00:00:49.94 bitrate=N/A    frame= 1501 fps=7.5 q=24.8 size=N/A time=00:00:50.08 bitrate=N/A    frame= 1505 fps=7.5 q=24.8 size=N/A time=00:00:50.21 bitrate=N/A    frame= 1509 fps=7.5 q=24.8 size=N/A time=00:00:50.35 bitrate=N/A    frame= 1513 fps=7.5 q=24.8 size=N/A time=00:00:50.48 bitrate=N/A    frame= 1517 fps=7.5 q=24.8 size=N/A time=00:00:50.61 bitrate=N/A    frame= 1521 fps=7.5 q=24.8 size=N/A time=00:00:50.75 bitrate=N/A    frame= 1525 fps=7.5 q=24.8 size=N/A time=00:00:50.88 bitrate=N/A    frame= 1529 fps=7.5 q=24.8 size=N/A time=00:00:51.01 bitrate=N/A    frame= 1533 fps=7.5 q=24.8 size=N/A time=00:00:51.15 bitrate=N/A    frame= 1537 fps=7.5 q=24.8 size=N/A time=00:00:51.28 bitrate=N/A    frame= 1541 fps=7.5 q=24.8 size=N/A time=00:00:51.41 bitrate=N/A    frame= 1545 fps=7.5 q=24.8 size=N/A time=00:00:51.55 bitrate=N/A    frame= 1549 fps=7.5 q=24.8 size=N/A time=00:00:51.68 bitrate=N/A    frame= 1553 fps=7.5 q=24.8 size=N/A time=00:00:51.81 bitrate=N/A    frame= 1557 fps=7.5 q=24.8 size=N/A time=00:00:51.95 bitrate=N/A    frame= 1561 fps=7.5 q=24.8 size=N/A time=00:00:52.08 bitrate=N/A    frame= 1565 fps=7.5 q=24.8 size=N/A time=00:00:52.21 bitrate=N/A    frame= 1569 fps=7.5 q=24.8 size=N/A time=00:00:52.35 bitrate=N/A    frame= 1573 fps=7.5 q=24.8 size=N/A time=00:00:52.48 bitrate=N/A    frame= 1577 fps=7.5 q=24.8 size=N/A time=00:00:52.61 bitrate=N/A    frame= 1581 fps=7.5 q=24.8 size=N/A time=00:00:52.75 bitrate=N/A    frame= 1585 fps=7.5 q=24.8 size=N/A time=00:00:52.88 bitrate=N/A    frame= 1589 fps=7.5 q=24.8 size=N/A time=00:00:53.01 bitrate=N/A    frame= 1593 fps=7.5 q=24.8 size=N/A time=00:00:53.15 bitrate=N/A    frame= 1597 fps=7.5 q=24.8 size=N/A time=00:00:53.28 bitrate=N/A    frame= 1601 fps=7.5 q=24.8 size=N/A time=00:00:53.42 bitrate=N/A    frame= 1605 fps=7.5 q=24.8 size=N/A time=00:00:53.55 bitrate=N/A    frame= 1609 fps=7.5 q=24.8 size=N/A time=00:00:53.68 bitrate=N/A    frame= 1613 fps=7.5 q=24.8 size=N/A time=00:00:53.82 bitrate=N/A    frame= 1617 fps=7.5 q=24.8 size=N/A time=00:00:53.95 bitrate=N/A    frame= 1621 fps=7.5 q=24.8 size=N/A time=00:00:54.08 bitrate=N/A    frame= 1625 fps=7.5 q=24.8 size=N/A time=00:00:54.22 bitrate=N/A    frame= 1629 fps=7.5 q=24.8 size=N/A time=00:00:54.35 bitrate=N/A    frame= 1633 fps=7.5 q=24.8 size=N/A time=00:00:54.48 bitrate=N/A    frame= 1637 fps=7.5 q=24.8 size=N/A time=00:00:54.62 bitrate=N/A    frame= 1641 fps=7.5 q=24.8 size=N/A time=00:00:54.75 bitrate=N/A    frame= 1645 fps=7.5 q=24.8 size=N/A time=00:00:54.88 bitrate=N/A    frame= 1649 fps=7.5 q=24.8 size=N/A time=00:00:55.02 bitrate=N/A    frame= 1653 fps=7.5 q=24.8 size=N/A time=00:00:55.15 bitrate=N/A    frame= 1657 fps=7.5 q=24.8 size=N/A time=00:00:55.28 bitrate=N/A    frame= 1661 fps=7.5 q=24.8 size=N/A time=00:00:55.42 bitrate=N/A    frame= 1665 fps=7.5 q=24.8 size=N/A time=00:00:55.55 bitrate=N/A    frame= 1669 fps=7.5 q=24.8 size=N/A time=00:00:55.68 bitrate=N/A    frame= 1673 fps=7.5 q=24.8 size=N/A time=00:00:55.82 bitrate=N/A    frame= 1677 fps=7.5 q=24.8 size=N/A time=00:00:55.95 bitrate=N/A    frame= 1681 fps=7.6 q=24.8 size=N/A time=00:00:56.08 bitrate=N/A    frame= 1685 fps=7.6 q=24.8 size=N/A time=00:00:56.22 bitrate=N/A    frame= 1689 fps=7.6 q=24.8 size=N/A time=00:00:56.35 bitrate=N/A    frame= 1693 fps=7.6 q=24.8 size=N/A time=00:00:56.48 bitrate=N/A    frame= 1697 fps=7.6 q=24.8 size=N/A time=00:00:56.62 bitrate=N/A    frame= 1701 fps=7.6 q=24.8 size=N/A time=00:00:56.75 bitrate=N/A    frame= 1705 fps=7.6 q=24.8 size=N/A time=00:00:56.89 bitrate=N/A    frame= 1709 fps=7.6 q=24.8 size=N/A time=00:00:57.02 bitrate=N/A    frame= 1713 fps=7.6 q=24.8 size=N/A time=00:00:57.15 bitrate=N/A    frame= 1717 fps=7.6 q=24.8 size=N/A time=00:00:57.29 bitrate=N/A    frame= 1721 fps=7.6 q=24.8 size=N/A time=00:00:57.42 bitrate=N/A    frame= 1725 fps=7.6 q=24.8 size=N/A time=00:00:57.55 bitrate=N/A    frame= 1729 fps=7.6 q=24.8 size=N/A time=00:00:57.69 bitrate=N/A    frame= 1733 fps=7.6 q=24.8 size=N/A time=00:00:57.82 bitrate=N/A    frame= 1737 fps=7.6 q=24.8 size=N/A time=00:00:57.95 bitrate=N/A    frame= 1741 fps=7.6 q=24.8 size=N/A time=00:00:58.09 bitrate=N/A    frame= 1745 fps=7.6 q=24.8 size=N/A time=00:00:58.22 bitrate=N/A    frame= 1749 fps=7.6 q=24.8 size=N/A time=00:00:58.35 bitrate=N/A    frame= 1753 fps=7.6 q=24.8 size=N/A time=00:00:58.49 bitrate=N/A    frame= 1757 fps=7.6 q=24.8 size=N/A time=00:00:58.62 bitrate=N/A    frame= 1761 fps=7.6 q=24.8 size=N/A time=00:00:58.75 bitrate=N/A    frame= 1765 fps=7.6 q=24.8 size=N/A time=00:00:58.89 bitrate=N/A    frame= 1769 fps=7.6 q=24.8 size=N/A time=00:00:59.02 bitrate=N/A    frame= 1773 fps=7.6 q=24.8 size=N/A time=00:00:59.15 bitrate=N/A    frame= 1777 fps=7.6 q=24.8 size=N/A time=00:00:59.29 bitrate=N/A    frame= 1781 fps=7.6 q=24.8 size=N/A time=00:00:59.42 bitrate=N/A    frame= 1785 fps=7.6 q=24.8 size=N/A time=00:00:59.55 bitrate=N/A    frame= 1789 fps=7.6 q=24.8 size=N/A time=00:00:59.69 bitrate=N/A    frame= 1793 fps=7.6 q=24.8 size=N/A time=00:00:59.82 bitrate=N/A    frame= 1797 fps=7.6 q=24.8 size=N/A time=00:00:59.95 bitrate=N/A    frame= 1801 fps=7.6 q=24.8 size=N/A time=00:01:00.09 bitrate=N/A    frame= 1805 fps=7.6 q=24.8 size=N/A time=00:01:00.22 bitrate=N/A    frame= 1809 fps=7.6 q=24.8 size=N/A time=00:01:00.36 bitrate=N/A    frame= 1813 fps=7.6 q=24.8 size=N/A time=00:01:00.49 bitrate=N/A    frame= 1817 fps=7.6 q=24.8 size=N/A time=00:01:00.62 bitrate=N/A    frame= 1821 fps=7.6 q=24.8 size=N/A time=00:01:00.76 bitrate=N/A    frame= 1825 fps=7.6 q=24.8 size=N/A time=00:01:00.89 bitrate=N/A    frame= 1829 fps=7.6 q=24.8 size=N/A time=00:01:01.02 bitrate=N/A    frame= 1833 fps=7.6 q=24.8 size=N/A time=00:01:01.16 bitrate=N/A    frame= 1837 fps=7.6 q=24.8 size=N/A time=00:01:01.29 bitrate=N/A    frame= 1841 fps=7.6 q=24.8 size=N/A time=00:01:01.42 bitrate=N/A    frame= 1845 fps=7.6 q=24.8 size=N/A time=00:01:01.56 bitrate=N/A    frame= 1849 fps=7.6 q=24.8 size=N/A time=00:01:01.69 bitrate=N/A    frame= 1853 fps=7.6 q=24.8 size=N/A time=00:01:01.82 bitrate=N/A    frame= 1857 fps=7.6 q=24.8 size=N/A time=00:01:01.96 bitrate=N/A    frame= 1861 fps=7.6 q=24.8 size=N/A time=00:01:02.09 bitrate=N/A    frame= 1865 fps=7.6 q=24.8 size=N/A time=00:01:02.22 bitrate=N/A    frame= 1869 fps=7.6 q=24.8 size=N/A time=00:01:02.36 bitrate=N/A    frame= 1873 fps=7.6 q=24.8 size=N/A time=00:01:02.49 bitrate=N/A    frame= 1877 fps=7.6 q=24.8 size=N/A time=00:01:02.62 bitrate=N/A    frame= 1881 fps=7.6 q=24.8 size=N/A time=00:01:02.76 bitrate=N/A    frame= 1885 fps=7.6 q=24.8 size=N/A time=00:01:02.89 bitrate=N/A    frame= 1889 fps=7.6 q=24.8 size=N/A time=00:01:03.02 bitrate=N/A    frame= 1893 fps=7.6 q=24.8 size=N/A time=00:01:03.16 bitrate=N/A    frame= 1897 fps=7.6 q=24.8 size=N/A time=00:01:03.29 bitrate=N/A    frame= 1901 fps=7.6 q=24.8 size=N/A time=00:01:03.43 bitrate=N/A    frame= 1905 fps=7.6 q=24.8 size=N/A time=00:01:03.56 bitrate=N/A    frame= 1909 fps=7.6 q=24.8 size=N/A time=00:01:03.69 bitrate=N/A    frame= 1913 fps=7.6 q=24.8 size=N/A time=00:01:03.83 bitrate=N/A    frame= 1917 fps=7.6 q=24.8 size=N/A time=00:01:03.96 bitrate=N/A    frame= 1921 fps=7.6 q=24.8 size=N/A time=00:01:04.09 bitrate=N/A    frame= 1925 fps=7.6 q=24.8 size=N/A time=00:01:04.23 bitrate=N/A    frame= 1929 fps=7.6 q=24.8 size=N/A time=00:01:04.36 bitrate=N/A    frame= 1933 fps=7.6 q=24.8 size=N/A time=00:01:04.49 bitrate=N/A    frame= 1937 fps=7.6 q=24.8 size=N/A time=00:01:04.63 bitrate=N/A    frame= 1941 fps=7.6 q=24.8 size=N/A time=00:01:04.76 bitrate=N/A    frame= 1945 fps=7.6 q=24.8 size=N/A time=00:01:04.89 bitrate=N/A    frame= 1949 fps=7.6 q=24.8 size=N/A time=00:01:05.03 bitrate=N/A    frame= 1953 fps=7.6 q=24.8 size=N/A time=00:01:05.16 bitrate=N/A    frame= 1957 fps=7.6 q=24.8 size=N/A time=00:01:05.29 bitrate=N/A    frame= 1961 fps=7.6 q=24.8 size=N/A time=00:01:05.43 bitrate=N/A    frame= 1965 fps=7.6 q=24.8 size=N/A time=00:01:05.56 bitrate=N/A    frame= 1969 fps=7.6 q=24.8 size=N/A time=00:01:05.69 bitrate=N/A    frame= 1973 fps=7.6 q=24.8 size=N/A time=00:01:05.83 bitrate=N/A    frame= 1977 fps=7.6 q=24.8 size=N/A time=00:01:05.96 bitrate=N/A    frame= 1981 fps=7.6 q=24.8 size=N/A time=00:01:06.09 bitrate=N/A    frame= 1985 fps=7.6 q=24.8 size=N/A time=00:01:06.23 bitrate=N/A    frame= 1989 fps=7.6 q=24.8 size=N/A time=00:01:06.36 bitrate=N/A    frame= 1993 fps=7.6 q=24.8 size=N/A time=00:01:06.49 bitrate=N/A    frame= 1997 fps=7.6 q=24.8 size=N/A time=00:01:06.63 bitrate=N/A    frame= 2001 fps=7.6 q=24.8 size=N/A time=00:01:06.76 bitrate=N/A    frame= 2005 fps=7.6 q=24.8 size=N/A time=00:01:06.90 bitrate=N/A    frame= 2009 fps=7.6 q=24.8 size=N/A time=00:01:07.03 bitrate=N/A    frame= 2013 fps=7.6 q=24.8 size=N/A time=00:01:07.16 bitrate=N/A    frame= 2017 fps=7.6 q=24.8 size=N/A time=00:01:07.30 bitrate=N/A    frame= 2021 fps=7.6 q=24.8 size=N/A time=00:01:07.43 bitrate=N/A    frame= 2025 fps=7.6 q=24.8 size=N/A time=00:01:07.56 bitrate=N/A    frame= 2029 fps=7.6 q=24.8 size=N/A time=00:01:07.70 bitrate=N/A    frame= 2033 fps=7.6 q=24.8 size=N/A time=00:01:07.83 bitrate=N/A    frame= 2037 fps=7.6 q=24.8 size=N/A time=00:01:07.96 bitrate=N/A    frame= 2041 fps=7.6 q=24.8 size=N/A time=00:01:08.10 bitrate=N/A    frame= 2045 fps=7.6 q=24.8 size=N/A time=00:01:08.23 bitrate=N/A    frame= 2049 fps=7.6 q=24.8 size=N/A time=00:01:08.36 bitrate=N/A    frame= 2053 fps=7.6 q=24.8 size=N/A time=00:01:08.50 bitrate=N/A    frame= 2057 fps=7.6 q=24.8 size=N/A time=00:01:08.63 bitrate=N/A    frame= 2061 fps=7.6 q=24.8 size=N/A time=00:01:08.76 bitrate=N/A    frame= 2065 fps=7.6 q=24.8 size=N/A time=00:01:08.90 bitrate=N/A    frame= 2069 fps=7.6 q=24.8 size=N/A time=00:01:09.03 bitrate=N/A    frame= 2073 fps=7.6 q=24.8 size=N/A time=00:01:09.16 bitrate=N/A    frame= 2077 fps=7.6 q=24.8 size=N/A time=00:01:09.30 bitrate=N/A    frame= 2081 fps=7.6 q=24.8 size=N/A time=00:01:09.43 bitrate=N/A    frame= 2085 fps=7.6 q=24.8 size=N/A time=00:01:09.56 bitrate=N/A    frame= 2089 fps=7.6 q=24.8 size=N/A time=00:01:09.70 bitrate=N/A    frame= 2093 fps=7.6 q=24.8 size=N/A time=00:01:09.83 bitrate=N/A    frame= 2097 fps=7.6 q=24.8 size=N/A time=00:01:09.96 bitrate=N/A    frame= 2101 fps=7.6 q=24.8 size=N/A time=00:01:10.10 bitrate=N/A    frame= 2105 fps=7.6 q=24.8 size=N/A time=00:01:10.23 bitrate=N/A    frame= 2109 fps=7.6 q=24.8 size=N/A time=00:01:10.37 bitrate=N/A    frame= 2113 fps=7.6 q=24.8 size=N/A time=00:01:10.50 bitrate=N/A    frame= 2117 fps=7.6 q=24.8 size=N/A time=00:01:10.63 bitrate=N/A    frame= 2121 fps=7.6 q=24.8 size=N/A time=00:01:10.77 bitrate=N/A    frame= 2125 fps=7.6 q=24.8 size=N/A time=00:01:10.90 bitrate=N/A    frame= 2129 fps=7.6 q=24.8 size=N/A time=00:01:11.03 bitrate=N/A    frame= 2133 fps=7.6 q=24.8 size=N/A time=00:01:11.17 bitrate=N/A    frame= 2137 fps=7.6 q=24.8 size=N/A time=00:01:11.30 bitrate=N/A    frame= 2141 fps=7.6 q=24.8 size=N/A time=00:01:11.43 bitrate=N/A    frame= 2145 fps=7.6 q=24.8 size=N/A time=00:01:11.57 bitrate=N/A    frame= 2149 fps=7.6 q=24.8 size=N/A time=00:01:11.70 bitrate=N/A    frame= 2153 fps=7.6 q=24.8 size=N/A time=00:01:11.83 bitrate=N/A    frame= 2157 fps=7.6 q=24.8 size=N/A time=00:01:11.97 bitrate=N/A    frame= 2161 fps=7.6 q=24.8 size=N/A time=00:01:12.10 bitrate=N/A    frame= 2165 fps=7.6 q=24.8 size=N/A time=00:01:12.23 bitrate=N/A    frame= 2169 fps=7.6 q=24.8 size=N/A time=00:01:12.37 bitrate=N/A    frame= 2173 fps=7.6 q=24.8 size=N/A time=00:01:12.50 bitrate=N/A    frame= 2177 fps=7.6 q=24.8 size=N/A time=00:01:12.63 bitrate=N/A    frame= 2181 fps=7.6 q=24.8 size=N/A time=00:01:12.77 bitrate=N/A    frame= 2185 fps=7.6 q=24.8 size=N/A time=00:01:12.90 bitrate=N/A    frame= 2189 fps=7.6 q=24.8 size=N/A time=00:01:13.03 bitrate=N/A    frame= 2193 fps=7.6 q=24.8 size=N/A time=00:01:13.17 bitrate=N/A    frame= 2197 fps=7.6 q=24.8 size=N/A time=00:01:13.30 bitrate=N/A    frame= 2201 fps=7.6 q=24.8 size=N/A time=00:01:13.44 bitrate=N/A    frame= 2205 fps=7.6 q=24.8 size=N/A time=00:01:13.57 bitrate=N/A    frame= 2209 fps=7.6 q=24.8 size=N/A time=00:01:13.70 bitrate=N/A    frame= 2213 fps=7.6 q=24.8 size=N/A time=00:01:13.84 bitrate=N/A    frame= 2217 fps=7.6 q=24.8 size=N/A time=00:01:13.97 bitrate=N/A    frame= 2221 fps=7.6 q=24.8 size=N/A time=00:01:14.10 bitrate=N/A    frame= 2225 fps=7.6 q=24.8 size=N/A time=00:01:14.24 bitrate=N/A    frame= 2229 fps=7.6 q=24.8 size=N/A time=00:01:14.37 bitrate=N/A    frame= 2233 fps=7.6 q=24.8 size=N/A time=00:01:14.50 bitrate=N/A    frame= 2237 fps=7.6 q=24.8 size=N/A time=00:01:14.64 bitrate=N/A    frame= 2241 fps=7.6 q=24.8 size=N/A time=00:01:14.77 bitrate=N/A    frame= 2245 fps=7.6 q=24.8 size=N/A time=00:01:14.90 bitrate=N/A    frame= 2249 fps=7.6 q=24.8 size=N/A time=00:01:15.04 bitrate=N/A    frame= 2253 fps=7.6 q=24.8 size=N/A time=00:01:15.17 bitrate=N/A    frame= 2257 fps=7.6 q=24.8 size=N/A time=00:01:15.30 bitrate=N/A    frame= 2261 fps=7.6 q=24.8 size=N/A time=00:01:15.44 bitrate=N/A    frame= 2265 fps=7.6 q=24.8 size=N/A time=00:01:15.57 bitrate=N/A    frame= 2269 fps=7.6 q=24.8 size=N/A time=00:01:15.70 bitrate=N/A    frame= 2273 fps=7.6 q=24.8 size=N/A time=00:01:15.84 bitrate=N/A    frame= 2277 fps=7.6 q=24.8 size=N/A time=00:01:15.97 bitrate=N/A    frame= 2281 fps=7.6 q=24.8 size=N/A time=00:01:16.10 bitrate=N/A    frame= 2285 fps=7.6 q=24.8 size=N/A time=00:01:16.24 bitrate=N/A    frame= 2289 fps=7.6 q=24.8 size=N/A time=00:01:16.37 bitrate=N/A    frame= 2293 fps=7.6 q=24.8 size=N/A time=00:01:16.50 bitrate=N/A    frame= 2297 fps=7.6 q=24.8 size=N/A time=00:01:16.64 bitrate=N/A    frame= 2301 fps=7.6 q=24.8 size=N/A time=00:01:16.77 bitrate=N/A    frame= 2305 fps=7.6 q=24.8 size=N/A time=00:01:16.91 bitrate=N/A    frame= 2309 fps=7.6 q=24.8 size=N/A time=00:01:17.04 bitrate=N/A    frame= 2313 fps=7.6 q=24.8 size=N/A time=00:01:17.17 bitrate=N/A    frame= 2317 fps=7.6 q=24.8 size=N/A time=00:01:17.31 bitrate=N/A    frame= 2321 fps=7.6 q=24.8 size=N/A time=00:01:17.44 bitrate=N/A    frame= 2325 fps=7.6 q=24.8 size=N/A time=00:01:17.57 bitrate=N/A    frame= 2329 fps=7.6 q=24.8 size=N/A time=00:01:17.71 bitrate=N/A    frame= 2333 fps=7.6 q=24.8 size=N/A time=00:01:17.84 bitrate=N/A    frame= 2337 fps=7.6 q=24.8 size=N/A time=00:01:17.97 bitrate=N/A    frame= 2341 fps=7.6 q=24.8 size=N/A time=00:01:18.11 bitrate=N/A    frame= 2345 fps=7.6 q=24.8 size=N/A time=00:01:18.24 bitrate=N/A    frame= 2349 fps=7.6 q=24.8 size=N/A time=00:01:18.37 bitrate=N/A    frame= 2353 fps=7.6 q=24.8 size=N/A time=00:01:18.51 bitrate=N/A    frame= 2357 fps=7.6 q=24.8 size=N/A time=00:01:18.64 bitrate=N/A    frame= 2361 fps=7.6 q=24.8 size=N/A time=00:01:18.77 bitrate=N/A    frame= 2365 fps=7.6 q=24.8 size=N/A time=00:01:18.91 bitrate=N/A    frame= 2369 fps=7.6 q=24.8 size=N/A time=00:01:19.04 bitrate=N/A    frame= 2373 fps=7.6 q=24.8 size=N/A time=00:01:19.17 bitrate=N/A    frame= 2377 fps=7.6 q=24.8 size=N/A time=00:01:19.31 bitrate=N/A    frame= 2381 fps=7.6 q=24.8 size=N/A time=00:01:19.44 bitrate=N/A    frame= 2385 fps=7.6 q=24.8 size=N/A time=00:01:19.57 bitrate=N/A    frame= 2389 fps=7.6 q=24.8 size=N/A time=00:01:19.71 bitrate=N/A    frame= 2393 fps=7.6 q=24.8 size=N/A time=00:01:19.84 bitrate=N/A    frame= 2397 fps=7.6 q=24.8 size=N/A time=00:01:19.97 bitrate=N/A    frame= 2401 fps=7.6 q=24.8 size=N/A time=00:01:20.11 bitrate=N/A    frame= 2405 fps=7.6 q=24.8 size=N/A time=00:01:20.24 bitrate=N/A    frame= 2409 fps=7.6 q=24.8 size=N/A time=00:01:20.38 bitrate=N/A    frame= 2413 fps=7.6 q=24.8 size=N/A time=00:01:20.51 bitrate=N/A    frame= 2417 fps=7.6 q=24.8 size=N/A time=00:01:20.64 bitrate=N/A    frame= 2421 fps=7.6 q=24.8 size=N/A time=00:01:20.78 bitrate=N/A    frame= 2425 fps=7.6 q=24.8 size=N/A time=00:01:20.91 bitrate=N/A    frame= 2429 fps=7.6 q=24.8 size=N/A time=00:01:21.04 bitrate=N/A    frame= 2433 fps=7.6 q=24.8 size=N/A time=00:01:21.18 bitrate=N/A    frame= 2437 fps=7.6 q=24.8 size=N/A time=00:01:21.31 bitrate=N/A    frame= 2441 fps=7.6 q=24.8 size=N/A time=00:01:21.44 bitrate=N/A    frame= 2445 fps=7.6 q=24.8 size=N/A time=00:01:21.58 bitrate=N/A    frame= 2449 fps=7.6 q=24.8 size=N/A time=00:01:21.71 bitrate=N/A    frame= 2453 fps=7.6 q=24.8 size=N/A time=00:01:21.84 bitrate=N/A    frame= 2457 fps=7.6 q=24.8 size=N/A time=00:01:21.98 bitrate=N/A    frame= 2461 fps=7.6 q=24.8 size=N/A time=00:01:22.11 bitrate=N/A    frame= 2465 fps=7.6 q=24.8 size=N/A time=00:01:22.24 bitrate=N/A    frame= 2469 fps=7.6 q=24.8 size=N/A time=00:01:22.38 bitrate=N/A    frame= 2473 fps=7.6 q=24.8 size=N/A time=00:01:22.51 bitrate=N/A    frame= 2477 fps=7.6 q=24.8 size=N/A time=00:01:22.64 bitrate=N/A    frame= 2481 fps=7.6 q=24.8 size=N/A time=00:01:22.78 bitrate=N/A    frame= 2485 fps=7.6 q=24.8 size=N/A time=00:01:22.91 bitrate=N/A    frame= 2489 fps=7.6 q=24.8 size=N/A time=00:01:23.04 bitrate=N/A    frame= 2493 fps=7.6 q=24.8 size=N/A time=00:01:23.18 bitrate=N/A    frame= 2497 fps=7.6 q=24.8 size=N/A time=00:01:23.31 bitrate=N/A    frame= 2501 fps=7.6 q=24.8 size=N/A time=00:01:23.45 bitrate=N/A    frame= 2505 fps=7.6 q=24.8 size=N/A time=00:01:23.58 bitrate=N/A    frame= 2509 fps=7.6 q=24.8 size=N/A time=00:01:23.71 bitrate=N/A    frame= 2513 fps=7.6 q=24.8 size=N/A time=00:01:23.85 bitrate=N/A    frame= 2517 fps=7.6 q=24.8 size=N/A time=00:01:23.98 bitrate=N/A    frame= 2521 fps=7.6 q=24.8 size=N/A time=00:01:24.11 bitrate=N/A    frame= 2525 fps=7.6 q=24.8 size=N/A time=00:01:24.25 bitrate=N/A    frame= 2529 fps=7.6 q=24.8 size=N/A time=00:01:24.38 bitrate=N/A    frame= 2533 fps=7.6 q=24.8 size=N/A time=00:01:24.51 bitrate=N/A    frame= 2537 fps=7.6 q=24.8 size=N/A time=00:01:24.65 bitrate=N/A    frame= 2541 fps=7.6 q=24.8 size=N/A time=00:01:24.78 bitrate=N/A    frame= 2545 fps=7.6 q=24.8 size=N/A time=00:01:24.91 bitrate=N/A    frame= 2549 fps=7.6 q=24.8 size=N/A time=00:01:25.05 bitrate=N/A    frame= 2553 fps=7.6 q=24.8 size=N/A time=00:01:25.18 bitrate=N/A    frame= 2557 fps=7.6 q=24.8 size=N/A time=00:01:25.31 bitrate=N/A    frame= 2561 fps=7.6 q=24.8 size=N/A time=00:01:25.45 bitrate=N/A    frame= 2565 fps=7.6 q=24.8 size=N/A time=00:01:25.58 bitrate=N/A    frame= 2569 fps=7.6 q=24.8 size=N/A time=00:01:25.71 bitrate=N/A    frame= 2573 fps=7.6 q=24.8 size=N/A time=00:01:25.85 bitrate=N/A    frame= 2577 fps=7.6 q=24.8 size=N/A time=00:01:25.98 bitrate=N/A    frame= 2581 fps=7.6 q=24.8 size=N/A time=00:01:26.11 bitrate=N/A    frame= 2585 fps=7.6 q=24.8 size=N/A time=00:01:26.25 bitrate=N/A    frame= 2589 fps=7.6 q=24.8 size=N/A time=00:01:26.38 bitrate=N/A    frame= 2593 fps=7.6 q=24.8 size=N/A time=00:01:26.51 bitrate=N/A    frame= 2597 fps=7.6 q=24.8 size=N/A time=00:01:26.65 bitrate=N/A    frame= 2601 fps=7.6 q=24.8 size=N/A time=00:01:26.78 bitrate=N/A    frame= 2605 fps=7.6 q=24.8 size=N/A time=00:01:26.92 bitrate=N/A    frame= 2609 fps=7.6 q=24.8 size=N/A time=00:01:27.05 bitrate=N/A    frame= 2613 fps=7.6 q=24.8 size=N/A time=00:01:27.18 bitrate=N/A    frame= 2617 fps=7.6 q=24.8 size=N/A time=00:01:27.32 bitrate=N/A    frame= 2621 fps=7.6 q=24.8 size=N/A time=00:01:27.45 bitrate=N/A    frame= 2625 fps=7.6 q=24.8 size=N/A time=00:01:27.58 bitrate=N/A    frame= 2629 fps=7.6 q=24.8 size=N/A time=00:01:27.72 bitrate=N/A    frame= 2633 fps=7.6 q=24.8 size=N/A time=00:01:27.85 bitrate=N/A    frame= 2637 fps=7.6 q=24.8 size=N/A time=00:01:27.98 bitrate=N/A    frame= 2641 fps=7.6 q=24.8 size=N/A time=00:01:28.12 bitrate=N/A    frame= 2645 fps=7.6 q=24.8 size=N/A time=00:01:28.25 bitrate=N/A    frame= 2649 fps=7.6 q=24.8 size=N/A time=00:01:28.38 bitrate=N/A    frame= 2653 fps=7.6 q=24.8 size=N/A time=00:01:28.52 bitrate=N/A    frame= 2657 fps=7.6 q=24.8 size=N/A time=00:01:28.65 bitrate=N/A    frame= 2661 fps=7.6 q=24.8 size=N/A time=00:01:28.78 bitrate=N/A    frame= 2665 fps=7.6 q=24.8 size=N/A time=00:01:28.92 bitrate=N/A    frame= 2669 fps=7.6 q=24.8 size=N/A time=00:01:29.05 bitrate=N/A    frame= 2673 fps=7.6 q=24.8 size=N/A time=00:01:29.18 bitrate=N/A    frame= 2677 fps=7.6 q=24.8 size=N/A time=00:01:29.32 bitrate=N/A    frame= 2681 fps=7.6 q=24.8 size=N/A time=00:01:29.45 bitrate=N/A    frame= 2685 fps=7.6 q=24.8 size=N/A time=00:01:29.58 bitrate=N/A    frame= 2689 fps=7.6 q=24.8 size=N/A time=00:01:29.72 bitrate=N/A    frame= 2693 fps=7.6 q=24.8 size=N/A time=00:01:29.85 bitrate=N/A    frame= 2697 fps=7.6 q=24.8 size=N/A time=00:01:29.98 bitrate=N/A    frame= 2701 fps=7.6 q=24.8 size=N/A time=00:01:30.12 bitrate=N/A    frame= 2705 fps=7.6 q=24.8 size=N/A time=00:01:30.25 bitrate=N/A    frame= 2709 fps=7.6 q=24.8 size=N/A time=00:01:30.39 bitrate=N/A    frame= 2713 fps=7.6 q=24.8 size=N/A time=00:01:30.52 bitrate=N/A    frame= 2717 fps=7.6 q=24.8 size=N/A time=00:01:30.65 bitrate=N/A    frame= 2721 fps=7.6 q=24.8 size=N/A time=00:01:30.79 bitrate=N/A    frame= 2725 fps=7.6 q=24.8 size=N/A time=00:01:30.92 bitrate=N/A    frame= 2729 fps=7.6 q=24.8 size=N/A time=00:01:31.05 bitrate=N/A    frame= 2733 fps=7.6 q=24.8 size=N/A time=00:01:31.19 bitrate=N/A    frame= 2737 fps=7.6 q=24.8 size=N/A time=00:01:31.32 bitrate=N/A    frame= 2741 fps=7.6 q=24.8 size=N/A time=00:01:31.45 bitrate=N/A    frame= 2745 fps=7.6 q=24.8 size=N/A time=00:01:31.59 bitrate=N/A    frame= 2749 fps=7.6 q=24.8 size=N/A time=00:01:31.72 bitrate=N/A    frame= 2753 fps=7.6 q=24.8 size=N/A time=00:01:31.85 bitrate=N/A    frame= 2757 fps=7.6 q=24.8 size=N/A time=00:01:31.99 bitrate=N/A    frame= 2761 fps=7.6 q=24.8 size=N/A time=00:01:32.12 bitrate=N/A    frame= 2765 fps=7.6 q=24.8 size=N/A time=00:01:32.25 bitrate=N/A    frame= 2769 fps=7.6 q=24.8 size=N/A time=00:01:32.39 bitrate=N/A    frame= 2773 fps=7.6 q=24.8 size=N/A time=00:01:32.52 bitrate=N/A    frame= 2777 fps=7.6 q=24.8 size=N/A time=00:01:32.65 bitrate=N/A    frame= 2781 fps=7.6 q=24.8 size=N/A time=00:01:32.79 bitrate=N/A    frame= 2785 fps=7.6 q=24.8 size=N/A time=00:01:32.92 bitrate=N/A    frame= 2789 fps=7.6 q=24.8 size=N/A time=00:01:33.05 bitrate=N/A    frame= 2793 fps=7.6 q=24.8 size=N/A time=00:01:33.19 bitrate=N/A    frame= 2797 fps=7.6 q=24.8 size=N/A time=00:01:33.32 bitrate=N/A    frame= 2801 fps=7.6 q=24.8 size=N/A time=00:01:33.46 bitrate=N/A    frame= 2805 fps=7.6 q=24.8 size=N/A time=00:01:33.59 bitrate=N/A    frame= 2809 fps=7.6 q=24.8 size=N/A time=00:01:33.72 bitrate=N/A    frame= 2813 fps=7.6 q=24.8 size=N/A time=00:01:33.86 bitrate=N/A    frame= 2817 fps=7.6 q=24.8 size=N/A time=00:01:33.99 bitrate=N/A    frame= 2821 fps=7.6 q=24.8 size=N/A time=00:01:34.12 bitrate=N/A    frame= 2825 fps=7.6 q=24.8 size=N/A time=00:01:34.26 bitrate=N/A    frame= 2829 fps=7.6 q=24.8 size=N/A time=00:01:34.39 bitrate=N/A    frame= 2833 fps=7.6 q=24.8 size=N/A time=00:01:34.52 bitrate=N/A    frame= 2837 fps=7.6 q=24.8 size=N/A time=00:01:34.66 bitrate=N/A    frame= 2841 fps=7.6 q=24.8 size=N/A time=00:01:34.79 bitrate=N/A    frame= 2845 fps=7.6 q=24.8 size=N/A time=00:01:34.92 bitrate=N/A    frame= 2849 fps=7.6 q=24.8 size=N/A time=00:01:35.06 bitrate=N/A    frame= 2853 fps=7.6 q=24.8 size=N/A time=00:01:35.19 bitrate=N/A    frame= 2857 fps=7.6 q=24.8 size=N/A time=00:01:35.32 bitrate=N/A    frame= 2861 fps=7.6 q=24.8 size=N/A time=00:01:35.46 bitrate=N/A    frame= 2865 fps=7.6 q=24.8 size=N/A time=00:01:35.59 bitrate=N/A    frame= 2869 fps=7.6 q=24.8 size=N/A time=00:01:35.72 bitrate=N/A    frame= 2873 fps=7.6 q=24.8 size=N/A time=00:01:35.86 bitrate=N/A    frame= 2877 fps=7.6 q=24.8 size=N/A time=00:01:35.99 bitrate=N/A    frame= 2878 fps=7.6 q=24.8 Lsize=N/A time=00:01:36.02 bitrate=N/A    
video:3154264kB audio:0kB subtitle:0kB other streams:0kB global headers:0kB muxing overhead: unknown
+ turkic load DJI_0012_5m_to_30m_szarvasnyomok_Kistape_2018.03.13._napos_kalaszos_T1 /home/horvathandras/vatic/vatic/videos/DJI_0012_5m_to_30m_szarvasnyomok_Kistape_2018.03.13._napos_kalaszos_T1 $'Pozit\303\255vROI' $'Negat\303\255vROI' $'T\303\272r\303\241s' '~Friss' '~Régebbi' $'R\303\241g\303\241s' '~Friss' '~Régebbi' $'T\303\266r\303\251s' '~Friss' '~Régebbi' $'Tapos\303\241s' '~Friss' '~Régebbi' $'Eg\303\251szs\303\251gesN\303\266v\303\251ny' $'Egy\303\251b1' $'Egy\303\251b2' $'Egy\303\251b3' $'Egy\303\251b4' $'Egy\303\251b5' --offline --title '$filenameNoDot Video' --length 1000 --description 'vatic annotation'
+ turkic publish --offline
+ mkdir /home/horvathandras/vatic/vatic/public/videothumbnails/DJI_0012_5m_to_30m_szarvasnyomok_Kistape_2018.03.13._napos_kalaszos_T1
+ cp /home/horvathandras/vatic/vatic/videos/DJI_0012_5m_to_30m_szarvasnyomok_Kistape_2018.03.13._napos_kalaszos_T1/0/0/31.jpg /home/horvathandras/vatic/vatic/public/videothumbnails/DJI_0012_5m_to_30m_szarvasnyomok_Kistape_2018.03.13._napos_kalaszos_T1/thumb.jpg
